<?xml version="1.0" encoding="utf-8"?>
<svg id="master-artboard" viewBox="0 0 1096 780" version="1.1" xmlns="http://www.w3.org/2000/svg" x="0px" y="0px" style="enable-background:new 0 0 1096 780;" width="1096px" height="780px">

<path d="M 0 -0.7 H 1096 V 780.8 H 0 V -0.7 Z" class="st0" style="fill: rgb(157, 220, 249);"/>
<path class="st1" d="M0,337.6c0,0,86.1-106.5,287.1-21c201,85.5,12,62.8,316.5,64.4c304.5,1.6,225.7-54.6,281.4-59.9&#10;&#9;c0,0,34.1-10.6,63.8,24c29.7,34.5,29.7-88.4,76.2-113.9c46.5-25.5,70.9,0,70.9,0l0,281.9H0V337.6z" style="fill: rgb(132, 213, 247);"/>
<path class="st2" d="M0,435c0,0,87-226,267-30c187.3,203.9,294-86,294-86s64-174,102-182s52,6,66,16s58,70.3,84,151.1&#10;&#9;S877,507,923,457s22-130,22-130s-23.5-50,6.3-66c29.7-16,69.7,30,69.7,30l75,76l0,220H0V467V435z" style="fill: rgb(79, 149, 61);"/>
<path class="st3" d="M0,541c83.9-97.7,136.6-186.4,255.4-187.3C371.9,364.1,430.3,491.6,499,551c17-19.7,76-80,166-87.4&#10;&#9;c93.7-10.5,129.6,25.1,202,67.4c60.6-128.9,146.1-242.9,229-270l0,392H0V541z" style="fill: rgb(80, 166, 64);"/>
<path class="st4" d="M31,105h157.3l-32.5-13c0,0,13.3-31.1-12.3-33c-25.6-1.9-27.5,0.9-29.4,10.4c-1.9,9.5,10.5-42-23.7-49.3&#10;&#9;C26,6.3,27.9,78.1,38.3,84.7S31,105,31,105z" style="fill: rgb(220, 235, 241);"/>
<path class="st5" d="M1000,105h96V39c0,0-28.9-5.8-31.9,22.7c-27.2-8.9-38.5,1.5-37.5,26.9L1000,105z" style="fill: rgb(255, 254, 255);"/>
<path class="st6" d="M0,225h269l-100-15c0,0,16-61-27-58s-32.3,28-32.3,28S103,118,71,124c0,0-33,3-30,36c0,0,2-85-41-86V225z" style="fill: rgb(255, 255, 255);"/>
<path class="st7" d="M1096,653v31c-249.3-8.9-452.8,25.9-618.4,97H0V653H1096z" style="fill: rgb(148, 199, 103);"/>
<path class="st8" d="M1096,565c0,0-145-251.9-305-12.9c0,0-66-62.9-136,0C585,615,0,635.8,0,635.8V653h1096L1096,565z" style="fill: rgb(91, 186, 71);"/>
<path d="M 221.699993 723.299988 A 40.799999 9.6 0 0 1 180.899994 732.899988 A 40.799999 9.6 0 0 1 140.099995 723.299988 A 40.799999 9.6 0 0 1 180.899994 713.699987 A 40.799999 9.6 0 0 1 221.699993 723.299988 Z" class="st9" style="fill: rgb(138, 186, 96);"/>
<path class="st10" d="M240,354.4c0,0-139,46.9-17,94.7c0,0-50,153.1,170,159c0,0-393,33.4-393,27.7V541C0,541,104.1,359.7,240,354.4&#10;&#9;z" style="fill: rgb(80, 154, 68);"/>
<path class="st11" d="M116,717c0,0,4-102-26-106l57-18v132L116,717z" style="fill: rgb(172, 134, 85);"/>
<path class="st12" d="M147,593l61,12c0,0-23,50-9,112l-52,8V593z" style="fill: rgb(214, 166, 44);"/>
<path class="st13" d="M147,593v-97h8c0,0,11,83,80,112c0,0-16.5,1-27-3c0,0-10,7.5-27-1c0,0-17,5.5-22.5-5.5c0,0-9,13-11.5,6.5V593z&#10;&#9;" style="fill: rgb(109, 108, 109);"/>
<path class="st14" d="M147,496l-12,3c0,0-17,104-64,118.5c0,0,12.5,1.5,19-3.5c0,0,8.5,7.2,19-5.9c0,0,12,5.9,18-5.1&#10;&#9;c0,0,9.5,6.5,13-4.5c0,0,0.1,7.6,7,6.5V496z" style="fill: rgb(93, 93, 93);"/>
<path d="M 155 496 L 161.3000030517578 488.70001220703125 L 145.6999969482422 485.29998779296875 L 147 496 Z" class="st14" style="fill: rgb(93, 93, 93);"/>
<path d="M 145.6999969482422 485.29998779296875 L 147 496 L 135 499 L 126.69999694824219 490.70001220703125 Z" class="st15" style="fill: rgb(78, 79, 79);"/>
<path d="M 161.5 489 L 147 475 L 144 475 L 145.6999969482422 485.29998779296875 Z" class="st16" style="fill: rgb(118, 117, 118);"/>
<path class="st14" d="M126.7,490.7l19-5.3L144,475l-5.3,2C138.7,477,138.3,481,126.7,490.7z" style="fill: rgb(93, 93, 93);"/>
<path d="M 147 475 L 136.1999969482422 381 L 144 475 Z" class="st17" style="fill: rgb(122, 121, 122);"/>
<path d="M 136.1999969482422 381 L 144 475 L 138.6999969482422 477 Z" class="st18" style="fill: rgb(100, 99, 100);"/>
<path class="st2" d="M0,635.8c0,0,34.4-10.3,39.4,21s0.1,3.2,0.1,3.2s36.9-16,39.1,16.6c0,0,54-17.1,49.5,29.5&#10;&#9;c8.1,13.9,25.2,25.2,51.5,34H0V635.8z" style="fill: rgb(79, 149, 61);"/>
<path class="st19" d="M0,662.7c0,0,25.5-7.6,29.2,15.6c3.7,23.2,0,2.4,0,2.4s27.4-11.8,29,12.3c0,0,40.1-12.7,36.7,21.9&#10;&#9;c6,10.3,18.7,18.7,38.2,25.2H0V662.7z" style="fill: rgb(72, 138, 61);"/>
<path class="st20" d="M187.5,718.8c-3.5,10.7-9.3-64,0-86.3c0,0-6.3-38-26.1,0c-6.2,43.4-4.1,69.3,0.4,90.2L187.5,718.8z" style="fill: rgb(142, 112, 69);"/>
<path class="st21" d="M172.5,617.3c8.5,0,10.8,9.1,10,15.5c-6.5,26.6-6.1,56.6-3.6,87.3l-17.2,2.7c-4.8-28.9-6-58.7-0.4-90.2&#10;&#9;C165,625.7,168.7,619.8,172.5,617.3z" style="fill: rgb(101, 79, 46);"/>
<path class="st22" d="M182.5,632.8l5-0.2c-3.1-16.2-9.1-19.6-15-15.2C180.8,618,182.8,624.3,182.5,632.8z" style="fill: rgb(126, 98, 61);"/>
<path class="st23" d="M1096,684v-15c0,0-586-16-811,111l192.6,1C481.3,783.1,627.1,687.3,1096,684z" style="fill: rgb(255, 218, 133);"/>
<path class="st24" d="M1096,711v70c-142.8-2.5-279.1,0.2-394.9-1c0,0,83.9-43,207.9-45s125,35,147,17s-35-6-26-23S1091,710,1096,711&#10;&#9;L1096,711z" style="fill: rgb(120, 200, 234);"/>
<path d="M 1015.700012 717.5 A 15 6.7 0 0 1 1000.700012 724.2 A 15 6.7 0 0 1 985.700012 717.5 A 15 6.7 0 0 1 1000.700012 710.8 A 15 6.7 0 0 1 1015.700012 717.5 Z" class="st24" style="fill: rgb(120, 200, 234);"/>
<path d="M 1046.3 708.900024 A 7.3 1.9 0 0 1 1039 710.800024 A 7.3 1.9 0 0 1 1031.7 708.900024 A 7.3 1.9 0 0 1 1039 707.000024 A 7.3 1.9 0 0 1 1046.3 708.900024 Z" class="st24" style="fill: rgb(120, 200, 234);"/>
<path d="M 737.000011 751.400024 A 25.299999 5.6 0 0 1 711.700012 757.000024 A 25.299999 5.6 0 0 1 686.400013 751.400024 A 25.299999 5.6 0 0 1 711.700012 745.800025 A 25.299999 5.6 0 0 1 737.000011 751.400024 Z" class="st24" style="fill: rgb(120, 200, 234);"/>
<path d="M 695.599988 764 A 7.3 2.3 0 0 1 688.299988 766.3 A 7.3 2.3 0 0 1 680.999988 764 A 7.3 2.3 0 0 1 688.299988 761.7 A 7.3 2.3 0 0 1 695.599988 764 Z" class="st24" style="fill: rgb(120, 200, 234);"/>
<path d="M 836.999988 731.700012 A 6.7 3.3 0 0 1 830.299988 735.000012 A 6.7 3.3 0 0 1 823.599988 731.700012 A 6.7 3.3 0 0 1 830.299988 728.400012 A 6.7 3.3 0 0 1 836.999988 731.700012 Z" class="st24" style="fill: rgb(120, 200, 234);"/>
<path d="M 973.700012 760.200012 A 32 8.8 0 0 1 941.700012 769.000012 A 32 8.8 0 0 1 909.700012 760.200012 A 32 8.8 0 0 1 941.700012 751.400012 A 32 8.8 0 0 1 973.700012 760.200012 Z" class="st25" style="fill: rgb(109, 181, 212);"/>
<path d="M 905.599988 748.700012 A 10.3 2.8 0 0 1 895.299988 751.500012 A 10.3 2.8 0 0 1 884.999988 748.700012 A 10.3 2.8 0 0 1 895.299988 745.900012 A 10.3 2.8 0 0 1 905.599988 748.700012 Z" class="st25" style="fill: rgb(109, 181, 212);"/>
<path d="M 898.599988 762.099976 A 6.8 1.9 0 0 1 891.799988 763.999976 A 6.8 1.9 0 0 1 884.999988 762.099976 A 6.8 1.9 0 0 1 891.799988 760.199976 A 6.8 1.9 0 0 1 898.599988 762.099976 Z" class="st25" style="fill: rgb(109, 181, 212);"/>
<path d="M 1091.600049 729.599976 A 13.3 5.4 0 0 1 1078.300049 734.999976 A 13.3 5.4 0 0 1 1065.000049 729.599976 A 13.3 5.4 0 0 1 1078.300049 724.199975 A 13.3 5.4 0 0 1 1091.600049 729.599976 Z" class="st25" style="fill: rgb(109, 181, 212);"/>
<path d="M 1059.000049 722.299988 A 4.7 1.9 0 0 1 1054.300049 724.199988 A 4.7 1.9 0 0 1 1049.600049 722.299988 A 4.7 1.9 0 0 1 1054.300049 720.399988 A 4.7 1.9 0 0 1 1059.000049 722.299988 Z" class="st25" style="fill: rgb(109, 181, 212);"/>
<path class="st26" d="M671.2,135.6c0,0-77.1,202.3-36.1,277c22.2,40.4,29.9,51,29.9,51s-84.6-0.7-166,87.4l-70.4-78.3&#10;&#9;c0,0,76-15.7,132.4-153.7C624.5,163.6,638.2,143.5,671.2,135.6z" style="fill: rgb(76, 144, 64);"/>
<path class="st27" d="M941.7,269.5c9,27,21.8,51.5,51.8,64.9l-42.7,52.4c0,0,1.9-34.6-5.8-59.8S933.3,295,941.7,269.5z" style="fill: rgb(75, 141, 63);"/>
<path class="st27" d="M71,343.1c0,0-34,19.9-71,91.9l-1,100c0,0,105.8-122.9,102.9-120.1C99,417.6,66,401,71,375&#10;&#9;s33.4-47.7,42.1-48.7L71,343.1z" style="fill: rgb(75, 141, 63);"/>
<path class="st10" d="M721.5,463.2c0,0-108.3,47.5-76.9,96c0,0-23.5,14.7-89.2,27.4c-14.7,2.8-35.1-22.4-56.4-35.6&#10;&#9;C499,551,582.9,444.8,721.5,463.2z" style="fill: rgb(80, 154, 68);"/>
<path class="st28" d="M1096,269.5c-89.6,91-80.6,147.6-80.3,207.2c-27.7-19.7-64.3-36.3-110-23.3C974.4,348.2,1039.2,274,1096,261&#10;&#9;V269.5z" style="fill: rgb(83, 159, 71);"/>
<path class="st28" d="M73,428" style="fill: rgb(83, 159, 71);"/>
<path class="st29" d="M916.4,450.9c0,0-101.4,88.8-64.1,156.1c0,0-50-53.9-61.3-54.9C791,552.1,834.5,468,916.4,450.9z" style="fill: rgb(76, 173, 90);"/>
<path d="M 618 713.900024 A 13.5 3.1 0 0 1 604.5 717.000024 A 13.5 3.1 0 0 1 591 713.900024 A 13.5 3.1 0 0 1 604.5 710.800025 A 13.5 3.1 0 0 1 618 713.900024 Z" class="st30" style="fill: rgb(231, 198, 122);"/>
<path d="M 586.5 719 A 5.5 2 0 0 1 581 721 A 5.5 2 0 0 1 575.5 719 A 5.5 2 0 0 1 581 717 A 5.5 2 0 0 1 586.5 719 Z" class="st30" style="fill: rgb(231, 198, 122);"/>
<path d="M 679.000012 706.900024 A 15.8 3.9 0 0 1 663.200012 710.800025 A 15.8 3.9 0 0 1 647.400012 706.900024 A 15.8 3.9 0 0 1 663.200012 703.000024 A 15.8 3.9 0 0 1 679.000012 706.900024 Z" class="st30" style="fill: rgb(231, 198, 122);"/>
<path d="M 657.5 697.200012 A 5 1.2 0 0 1 652.5 698.400012 A 5 1.2 0 0 1 647.5 697.200012 A 5 1.2 0 0 1 652.5 696.000012 A 5 1.2 0 0 1 657.5 697.200012 Z" class="st30" style="fill: rgb(231, 198, 122);"/>
<path d="M 475 761.5 A 25.5 7 0 0 1 449.5 768.5 A 25.5 7 0 0 1 424 761.5 A 25.5 7 0 0 1 449.5 754.5 A 25.5 7 0 0 1 475 761.5 Z" class="st30" style="fill: rgb(231, 198, 122);"/>
<path d="M 495.999988 753 A 5.2 1.5 0 0 1 490.799988 754.5 A 5.2 1.5 0 0 1 485.599988 753 A 5.2 1.5 0 0 1 490.799988 751.5 A 5.2 1.5 0 0 1 495.999988 753 Z" class="st30" style="fill: rgb(231, 198, 122);"/>
<path d="M 485.400012 744.200012 A 5.2 1.7 0 0 1 480.200012 745.900012 A 5.2 1.7 0 0 1 475.000012 744.200012 A 5.2 1.7 0 0 1 480.200012 742.500012 A 5.2 1.7 0 0 1 485.400012 744.200012 Z" class="st30" style="fill: rgb(231, 198, 122);"/>
<path d="M 409 766.299988 A 12.5 4.7 0 0 1 396.5 770.999988 A 12.5 4.7 0 0 1 384 766.299988 A 12.5 4.7 0 0 1 396.5 761.599988 A 12.5 4.7 0 0 1 409 766.299988 Z" class="st30" style="fill: rgb(231, 198, 122);"/>
<path d="M 421.400012 755.799988 A 6.2 1.2 0 0 1 415.200012 756.999988 A 6.2 1.2 0 0 1 409.000012 755.799988 A 6.2 1.2 0 0 1 415.200012 754.599988 A 6.2 1.2 0 0 1 421.400012 755.799988 Z" class="st30" style="fill: rgb(231, 198, 122);"/>
<path d="M 770.000012 684.200012 A 7.8 1.8 0 0 1 762.200012 686.000012 A 7.8 1.8 0 0 1 754.400012 684.200012 A 7.8 1.8 0 0 1 762.200012 682.400012 A 7.8 1.8 0 0 1 770.000012 684.200012 Z" class="st30" style="fill: rgb(231, 198, 122);"/>
<path d="M 791 681.200012 A 5.5 1.2 0 0 1 785.5 682.400012 A 5.5 1.2 0 0 1 780 681.200012 A 5.5 1.2 0 0 1 785.5 680.000012 A 5.5 1.2 0 0 1 791 681.200012 Z" class="st30" style="fill: rgb(231, 198, 122);"/>
<path d="M 777 681.900024 A 3.5 0.6 0 0 1 773.5 682.500024 A 3.5 0.6 0 0 1 770 681.900024 A 3.5 0.6 0 0 1 773.5 681.300024 A 3.5 0.6 0 0 1 777 681.900024 Z" class="st30" style="fill: rgb(231, 198, 122);"/>
<path d="M 781.900012 695 A 13.7 3.5 0 0 1 768.200012 698.5 A 13.7 3.5 0 0 1 754.500012 695 A 13.7 3.5 0 0 1 768.200012 691.5 A 13.7 3.5 0 0 1 781.900012 695 Z" class="st30" style="fill: rgb(231, 198, 122);"/>
<path d="M 282.699997 687.299988 A 27.5 4 0 0 1 255.199997 691.299988 A 27.5 4 0 0 1 227.699997 687.299988 A 27.5 4 0 0 1 255.199997 683.299988 A 27.5 4 0 0 1 282.699997 687.299988 Z" class="st9" style="fill: rgb(138, 186, 96);"/>
<path d="M 224.600003 679.299988 A 6.3 1.3 0 0 1 218.300003 680.599988 A 6.3 1.3 0 0 1 212.000003 679.299988 A 6.3 1.3 0 0 1 218.300003 677.999988 A 6.3 1.3 0 0 1 224.600003 679.299988 Z" class="st9" style="fill: rgb(138, 186, 96);"/>
<path d="M 136.800001 756.599976 A 27.9 5.1 0 0 1 108.900002 761.699975 A 27.9 5.1 0 0 1 81.000002 756.599976 A 27.9 5.1 0 0 1 108.900002 751.499976 A 27.9 5.1 0 0 1 136.800001 756.599976 Z" class="st9" style="fill: rgb(138, 186, 96);"/>
<path d="M 161.399997 748.700012 A 8.7 2.8 0 0 1 152.699997 751.500012 A 8.7 2.8 0 0 1 143.999997 748.700012 A 8.7 2.8 0 0 1 152.699997 745.900012 A 8.7 2.8 0 0 1 161.399997 748.700012 Z" class="st9" style="fill: rgb(138, 186, 96);"/>
<path d="M 373.599987 725.5 A 19.299999 2.8 0 0 1 354.299988 728.3 A 19.299999 2.8 0 0 1 334.999989 725.5 A 19.299999 2.8 0 0 1 354.299988 722.7 A 19.299999 2.8 0 0 1 373.599987 725.5 Z" class="st9" style="fill: rgb(138, 186, 96);"/>
<path d="M 390.3 713.700012 A 8.3 3.3 0 0 1 382 717.000012 A 8.3 3.3 0 0 1 373.7 713.700012 A 8.3 3.3 0 0 1 382 710.400012 A 8.3 3.3 0 0 1 390.3 713.700012 Z" class="st9" style="fill: rgb(138, 186, 96);"/>
<path d="M 73 763.900024 A 33.299999 12.4 0 0 1 39.700001 776.300024 A 33.299999 12.4 0 0 1 6.400002 763.900024 A 33.299999 12.4 0 0 1 39.700001 751.500025 A 33.299999 12.4 0 0 1 73 763.900024 Z" class="st9" style="fill: rgb(138, 186, 96);"/>
<path d="M 81.000003 748.700012 A 7.2 2.8 0 0 1 73.800003 751.500012 A 7.2 2.8 0 0 1 66.600003 748.700012 A 7.2 2.8 0 0 1 73.800003 745.900012 A 7.2 2.8 0 0 1 81.000003 748.700012 Z" class="st9" style="fill: rgb(138, 186, 96);"/>
<path d="M 404 727.799988 A 11 5.1 0 0 1 393 732.899988 A 11 5.1 0 0 1 382 727.799988 A 11 5.1 0 0 1 393 722.699988 A 11 5.1 0 0 1 404 727.799988 Z" class="st9" style="fill: rgb(138, 186, 96);"/>
<path d="M 549.900013 674.700012 A 32.200001 4.7 0 0 1 517.700012 679.400012 A 32.200001 4.7 0 0 1 485.500011 674.700012 A 32.200001 4.7 0 0 1 517.700012 670.000012 A 32.200001 4.7 0 0 1 549.900013 674.700012 Z" class="st9" style="fill: rgb(138, 186, 96);"/>
<path d="M 485.499994 669.200012 A 7.6 0.8 0 0 1 477.899994 670.000012 A 7.6 0.8 0 0 1 470.299994 669.200012 A 7.6 0.8 0 0 1 477.899994 668.400012 A 7.6 0.8 0 0 1 485.499994 669.200012 Z" class="st9" style="fill: rgb(138, 186, 96);"/>
<path d="M 570.299988 672.299988 A 7 2.3 0 0 1 563.299988 674.599988 A 7 2.3 0 0 1 556.299988 672.299988 A 7 2.3 0 0 1 563.299988 669.999988 A 7 2.3 0 0 1 570.299988 672.299988 Z" class="st9" style="fill: rgb(138, 186, 96);"/>
<path d="M 470.299988 679 A 14 4.3 0 0 1 456.299988 683.3 A 14 4.3 0 0 1 442.299988 679 A 14 4.3 0 0 1 456.299988 674.7 A 14 4.3 0 0 1 470.299988 679 Z" class="st9" style="fill: rgb(138, 186, 96);"/>
<path d="M 227.7 734.599976 A 6.7 1.7 0 0 1 221 736.299976 A 6.7 1.7 0 0 1 214.3 734.599976 A 6.7 1.7 0 0 1 221 732.899976 A 6.7 1.7 0 0 1 227.7 734.599976 Z" class="st9" style="fill: rgb(138, 186, 96);"/>
<path d="M 285 762.799988 A 8 1.2 0 0 1 277 763.999988 A 8 1.2 0 0 1 269 762.799988 A 8 1.2 0 0 1 277 761.599988 A 8 1.2 0 0 1 285 762.799988 Z" class="st9" style="fill: rgb(138, 186, 96);"/>
</svg>